# This file uses centimeters as units for non-parametric coordinates.

g default
v -2.416666 -2.500000 1.750000
v 2.416666 -2.500000 1.750000
v -2.642716 -1.250000 1.750000
v 2.642716 -1.250000 1.750000
v -2.538666 0.000000 1.750000
v 2.538666 0.000000 1.750000
v -2.226173 1.250000 1.750000
v 2.226173 1.250000 1.750000
v -1.638889 2.500000 1.750000
v 1.638889 2.500000 1.750000
v -1.638889 2.500000 -1.750000
v 1.638889 2.500000 -1.750000
v -2.226173 1.250000 -1.750000
v 2.226173 1.250000 -1.750000
v -1.908148 0.000000 -1.750000
v 1.908148 0.000000 -1.750000
v -2.642716 -1.250000 -1.750000
v 2.642716 -1.250000 -1.750000
v -2.416666 -2.500000 -1.750000
v 2.416666 -2.500000 -1.750000
vt 0.375000 0.000000
vt 0.625000 0.000000
vt 0.375000 0.062500
vt 0.625000 0.062500
vt 0.375000 0.125000
vt 0.625000 0.125000
vt 0.375000 0.187500
vt 0.625000 0.187500
vt 0.375000 0.250000
vt 0.625000 0.250000
vt 0.375000 0.500000
vt 0.625000 0.500000
vt 0.375000 0.562500
vt 0.625000 0.562500
vt 0.375000 0.625000
vt 0.625000 0.625000
vt 0.375000 0.687500
vt 0.625000 0.687500
vt 0.375000 0.750000
vt 0.625000 0.750000
vt 0.375000 1.000000
vt 0.625000 1.000000
vt 0.875000 0.000000
vt 0.875000 0.062500
vt 0.875000 0.125000
vt 0.875000 0.187500
vt 0.875000 0.250000
vt 0.125000 0.000000
vt 0.125000 0.062500
vt 0.125000 0.125000
vt 0.125000 0.187500
vt 0.125000 0.250000
vn 0.000000 0.000000 1.000000
vn 0.000000 0.000000 1.000000
vn 0.000000 0.000000 1.000000
vn 0.000000 0.000000 1.000000
vn 0.000000 0.000000 1.000000
vn 0.000000 0.000000 1.000000
vn 0.000000 0.000000 1.000000
vn 0.000000 0.000000 1.000000
vn 0.000000 0.000000 1.000000
vn 0.000000 0.000000 1.000000
vn 0.000000 1.000000 0.000000
vn 0.000000 1.000000 0.000000
vn 0.000000 1.000000 0.000000
vn 0.000000 1.000000 0.000000
vn 0.000000 0.000000 -1.000000
vn 0.000000 0.000000 -1.000000
vn 0.000000 0.000000 -1.000000
vn 0.000000 0.000000 -1.000000
vn 0.000000 0.000000 -1.000000
vn 0.000000 0.000000 -1.000000
vn 0.000000 0.000000 -1.000000
vn 0.000000 0.000000 -1.000000
vn 0.000000 0.000000 -1.000000
vn 0.000000 0.000000 -1.000000
vn 0.000000 -1.000000 0.000000
vn 0.000000 -1.000000 0.000000
vn 0.000000 -1.000000 0.000000
vn 0.000000 -1.000000 0.000000
vn 0.984039 -0.177953 0.000000
vn 0.984039 -0.177953 0.000000
vn 0.996022 0.076996 -0.044858
vn 0.996022 0.076996 -0.044858
vn 0.982938 0.161225 -0.088537
vn 0.982032 0.166697 -0.088456
vn 0.972804 0.227449 -0.043812
vn 0.972804 0.227449 -0.043812
vn 0.905084 0.425233 0.000000
vn 0.905084 0.425233 0.000000
vn -0.984039 -0.177953 0.000000
vn -0.984039 -0.177953 0.000000
vn -0.996022 0.076996 -0.044858
vn -0.996022 0.076996 -0.044858
vn -0.982032 0.166697 -0.088456
vn -0.982938 0.161225 -0.088537
vn -0.972804 0.227449 -0.043812
vn -0.972804 0.227449 -0.043812
vn -0.905084 0.425233 0.000000
vn -0.905084 0.425233 0.000000
g geo__pelvis
f 1/1/1 2/2/2 4/4/3 3/3/4
f 3/3/4 4/4/3 6/6/5 5/5/6
f 5/5/6 6/6/5 8/8/7 7/7/8
f 7/7/8 8/8/7 10/10/9 9/9/10
f 9/9/11 10/10/12 12/12/13 11/11/14
f 11/11/15 12/12/16 14/14/17 13/13/18
f 13/13/18 14/14/17 16/16/19 15/15/20
f 15/15/20 16/16/19 18/18/21 17/17/22
f 17/17/22 18/18/21 20/20/23 19/19/24
f 19/19/25 20/20/26 2/22/27 1/21/28
f 2/2/29 20/23/30 18/24/31 4/4/32
f 4/4/32 18/24/31 16/25/33 6/6/34
f 6/6/34 16/25/33 14/26/35 8/8/36
f 8/8/36 14/26/35 12/27/37 10/10/38
f 19/28/39 1/1/40 3/3/41 17/29/42
f 17/29/42 3/3/41 5/5/43 15/30/44
f 15/30/44 5/5/43 7/7/45 13/31/46
f 13/31/46 7/7/45 9/9/47 11/32/48
